<?xml version="1.0" standalone="no"?>
<!DOCTYPE svg PUBLIC "-//W3C//DTD SVG 20010904//EN"
 "http://www.w3.org/TR/2001/REC-SVG-20010904/DTD/svg10.dtd">
<svg version="1.0" xmlns="http://www.w3.org/2000/svg"
 width="691.000000pt" height="141.000000pt" viewBox="0 0 691.000000 141.000000"
 preserveAspectRatio="xMidYMid meet">

<g transform="translate(0.000000,141.000000) scale(0.100000,-0.100000)"
fill="#000000" stroke="none">
<path d="M10 720 l0 -680 1140 0 1140 0 0 680 0 680 -1140 0 -1140 0 0 -680z
m367 379 c59 -28 94 -89 101 -174 2 -35 2 -70 0 -77 -4 -10 -28 -12 -104 -8
l-99 5 3 35 c4 42 -14 94 -28 85 -5 -3 -10 -28 -10 -54 0 -55 14 -72 100 -117
77 -41 124 -91 138 -147 25 -99 9 -183 -47 -238 -43 -44 -92 -59 -186 -59
-149 1 -225 77 -225 228 l0 52 105 0 105 0 0 -54 c0 -33 5 -58 13 -65 20 -16
27 -4 27 46 0 48 -17 71 -72 99 -114 59 -164 121 -174 220 -12 110 35 199 121
229 63 22 180 19 232 -6z m1720 0 c59 -28 94 -89 101 -174 2 -35 2 -70 0 -77
-4 -10 -28 -12 -104 -8 l-99 5 3 35 c4 42 -14 94 -28 85 -5 -3 -10 -28 -10
-54 0 -55 14 -72 100 -117 77 -41 124 -91 138 -147 25 -99 9 -183 -47 -238
-43 -44 -92 -59 -186 -59 -149 1 -225 77 -225 228 l0 52 105 0 105 0 0 -54 c0
-50 17 -86 33 -69 10 9 8 86 -2 102 -5 7 -44 35 -87 61 -97 58 -139 113 -149
195 l-7 55 -79 0 -79 0 0 -50 0 -50 65 0 65 0 0 -90 0 -90 -65 0 -65 0 0 -50
0 -50 59 0 c91 0 91 1 91 -96 l0 -84 -175 0 -175 0 0 238 c0 132 -3 300 -7
375 l-6 137 181 0 181 0 3 -87 3 -88 13 43 c17 56 66 109 117 127 63 22 180
19 232 -6z m-1217 -15 c0 -26 80 -550 100 -653 18 -97 24 -91 -95 -91 l-104 0
-7 60 -7 60 -38 0 -39 0 0 -45 0 -45 -105 0 c-104 0 -105 0 -100 23 9 41 105
690 105 714 0 2 65 3 145 3 l145 0 0 -26z m330 -264 l0 -280 80 0 80 0 0 -90
0 -90 -180 0 -180 0 0 198 c0 108 -3 275 -7 370 l-6 172 106 0 107 0 0 -280z"/>
<path d="M716 752 c-4 -53 -10 -105 -12 -114 -4 -15 1 -18 26 -18 25 0 30 4
26 18 -2 9 -8 59 -11 110 -4 50 -11 94 -15 97 -4 3 -11 -39 -14 -93z"/>
<path d="M5943 1121 c-24 -4 -44 -9 -46 -12 -3 -2 -7 -167 -11 -366 l-6 -363
101 0 102 0 -5 115 c-8 167 5 153 61 -68 11 -43 21 -81 24 -83 2 -3 48 -2 101
2 83 6 96 9 90 23 -3 9 -28 79 -54 157 -44 131 -46 142 -30 152 10 6 30 36 45
67 25 50 27 63 23 138 -7 121 -45 186 -133 223 -45 19 -194 27 -262 15z m163
-169 c22 -15 34 -52 34 -109 0 -65 -19 -103 -51 -103 -18 0 -19 8 -19 110 0
110 5 123 36 102z"/>
<path d="M2470 1112 l-35 -7 -3 -377 -2 -376 66 -8 c154 -16 278 20 334 97 50
70 65 136 64 284 0 91 -5 147 -17 185 -43 144 -120 201 -280 206 -51 1 -108 0
-127 -4z m182 -174 c27 -22 38 -87 37 -233 0 -146 -12 -207 -40 -213 -13 -2
-17 10 -22 65 -10 98 -9 393 1 393 5 0 15 -6 24 -12z"/>
<path d="M3549 1104 c-64 -19 -115 -77 -125 -139 -18 -123 22 -214 119 -275
112 -70 127 -86 127 -136 0 -31 -5 -46 -16 -51 -24 -9 -37 12 -42 72 l-4 55
-94 0 -94 0 1 -62 c1 -98 27 -150 94 -190 34 -19 53 -23 130 -23 80 0 95 3
137 27 68 41 91 93 87 202 -4 76 -7 88 -35 123 -17 21 -55 52 -85 70 -110 64
-114 67 -123 104 -11 43 -1 89 19 89 21 0 28 -19 27 -70 l-1 -48 91 -7 c107
-8 111 -5 102 75 -7 64 -32 127 -62 153 -50 45 -163 59 -253 31z"/>
<path d="M4150 930 l0 -190 -30 0 -30 0 0 170 0 170 -97 0 -96 0 6 -182 c4
-99 7 -256 7 -347 l0 -166 95 0 95 0 0 98 c0 97 0 97 25 97 l25 0 0 -120 0
-120 102 0 101 0 -6 263 c-4 144 -7 319 -7 390 l0 127 -95 0 -95 0 0 -190z"/>
<path d="M4452 1110 c-29 -4 -55 -10 -57 -11 -2 -2 -1 -169 2 -371 l6 -367 65
-7 c74 -8 189 0 245 16 47 14 106 65 123 107 18 42 18 144 0 186 -7 18 -29 46
-49 63 l-35 32 30 22 c38 28 58 76 58 140 0 161 -134 227 -388 190z m190 -157
c28 -25 25 -107 -4 -127 -12 -9 -28 -16 -34 -16 -13 0 -28 118 -18 144 8 21
32 20 56 -1z m-2 -303 c15 -15 20 -33 20 -72 0 -55 -19 -88 -52 -88 -16 0 -18
9 -18 90 0 98 9 111 50 70z"/>
<path d="M5022 1109 c-18 -6 -50 -27 -72 -49 -54 -54 -79 -140 -86 -290 -13
-272 58 -413 213 -427 112 -10 192 33 231 124 46 108 54 348 16 485 -38 133
-161 197 -302 157z m109 -174 c4 -17 7 -109 7 -205 0 -96 -3 -188 -7 -205 -8
-40 -38 -45 -48 -8 -10 36 -10 412 -1 436 12 28 42 16 49 -18z"/>
<path d="M6410 1112 l-35 -7 -3 -377 -2 -376 66 -8 c154 -16 278 20 334 97 50
70 65 136 64 284 0 91 -5 147 -17 185 -43 144 -120 201 -280 206 -51 1 -108 0
-127 -4z m182 -174 c27 -22 38 -87 37 -233 0 -146 -12 -207 -40 -213 -13 -2
-17 10 -22 65 -10 98 -9 393 1 393 5 0 15 -6 24 -12z"/>
<path d="M3053 1103 c-38 -5 -36 0 -58 -168 -18 -133 -72 -494 -81 -538 l-6
-27 96 0 c93 0 96 1 96 23 0 56 10 67 56 67 l44 0 0 -37 c0 -83 0 -83 112 -83
l100 0 -6 28 c-15 70 -116 713 -116 737 0 6 -187 4 -237 -2z m121 -360 l12
-123 -33 0 c-19 0 -33 5 -33 12 0 33 22 246 27 268 7 25 7 24 11 -5 2 -16 9
-85 16 -152z"/>
<path d="M5503 1103 c-38 -5 -36 0 -58 -168 -18 -133 -72 -494 -81 -538 l-6
-27 96 0 c93 0 96 1 96 23 0 56 10 67 56 67 l44 0 0 -37 c0 -83 0 -83 112 -83
l100 0 -6 28 c-15 70 -116 713 -116 737 0 6 -187 4 -237 -2z m121 -360 l12
-123 -33 0 c-19 0 -33 5 -33 12 0 33 22 246 27 268 7 25 7 24 11 -5 2 -16 9
-85 16 -152z"/>
</g>
</svg>
